<?xml version="1.0" encoding="UTF-8" standalone="no"?>
<!DOCTYPE svg PUBLIC "-//W3C//DTD SVG 1.1//EN"
 "http://www.w3.org/Graphics/SVG/1.1/DTD/svg11.dtd">
<!-- Generated by graphviz version 12.2.1 (20241206.2353)
 -->
<!-- Title: G Pages: 1 -->
<svg width="339pt" height="697pt"
 viewBox="0.00 0.00 338.50 697.00" xmlns="http://www.w3.org/2000/svg" xmlns:xlink="http://www.w3.org/1999/xlink">
<g id="graph0" class="graph" transform="scale(1 1) rotate(0) translate(4 693)">
<title>G</title>
<polygon fill="white" stroke="none" points="-4,4 -4,-693 334.5,-693 334.5,4 -4,4"/>
<!-- A -->
<g id="node1" class="node">
<title>A</title>
<path fill="none" stroke="black" d="M203.25,-689C203.25,-689 137,-689 137,-689 131,-689 125,-683 125,-677 125,-677 125,-664.5 125,-664.5 125,-658.5 131,-652.5 137,-652.5 137,-652.5 203.25,-652.5 203.25,-652.5 209.25,-652.5 215.25,-658.5 215.25,-664.5 215.25,-664.5 215.25,-677 215.25,-677 215.25,-683 209.25,-689 203.25,-689"/>
<text text-anchor="middle" x="170.12" y="-673.6" font-family="Times,serif" font-size="12.00">Data Collection</text>
<text text-anchor="middle" x="170.12" y="-659.35" font-family="Times,serif" font-size="12.00">survey.csv</text>
</g>
<!-- B -->
<g id="node2" class="node">
<title>B</title>
<path fill="none" stroke="black" d="M241.12,-616.5C241.12,-616.5 99.12,-616.5 99.12,-616.5 93.12,-616.5 87.12,-610.5 87.12,-604.5 87.12,-604.5 87.12,-592 87.12,-592 87.12,-586 93.12,-580 99.12,-580 99.12,-580 241.12,-580 241.12,-580 247.12,-580 253.12,-586 253.12,-592 253.12,-592 253.12,-604.5 253.12,-604.5 253.12,-610.5 247.12,-616.5 241.12,-616.5"/>
<text text-anchor="middle" x="170.12" y="-601.1" font-family="Times,serif" font-size="12.00">Data Preprocessing</text>
<text text-anchor="middle" x="170.12" y="-586.85" font-family="Times,serif" font-size="12.00">cleaning_utils.py, preprocess.py</text>
</g>
<!-- A&#45;&gt;B -->
<g id="edge1" class="edge">
<title>A&#45;&gt;B</title>
<path fill="none" stroke="black" d="M170.12,-652.32C170.12,-645.09 170.12,-636.5 170.12,-628.36"/>
<polygon fill="black" stroke="black" points="173.63,-628.48 170.13,-618.48 166.63,-628.48 173.63,-628.48"/>
</g>
<!-- C -->
<g id="node3" class="node">
<title>C</title>
<path fill="none" stroke="black" d="M247.5,-544C247.5,-544 92.75,-544 92.75,-544 86.75,-544 80.75,-538 80.75,-532 80.75,-532 80.75,-519.5 80.75,-519.5 80.75,-513.5 86.75,-507.5 92.75,-507.5 92.75,-507.5 247.5,-507.5 247.5,-507.5 253.5,-507.5 259.5,-513.5 259.5,-519.5 259.5,-519.5 259.5,-532 259.5,-532 259.5,-538 253.5,-544 247.5,-544"/>
<text text-anchor="middle" x="170.12" y="-528.6" font-family="Times,serif" font-size="12.00">Train/Test Split</text>
<text text-anchor="middle" x="170.12" y="-514.35" font-family="Times,serif" font-size="12.00">X_train_final.csv, X_test_final.csv</text>
</g>
<!-- B&#45;&gt;C -->
<g id="edge2" class="edge">
<title>B&#45;&gt;C</title>
<path fill="none" stroke="black" d="M170.12,-579.82C170.12,-572.59 170.12,-564 170.12,-555.86"/>
<polygon fill="black" stroke="black" points="173.63,-555.98 170.13,-545.98 166.63,-555.98 173.63,-555.98"/>
</g>
<!-- D -->
<g id="node4" class="node">
<title>D</title>
<path fill="none" stroke="black" d="M278.25,-471.5C278.25,-471.5 62,-471.5 62,-471.5 56,-471.5 50,-465.5 50,-459.5 50,-459.5 50,-447 50,-447 50,-441 56,-435 62,-435 62,-435 278.25,-435 278.25,-435 284.25,-435 290.25,-441 290.25,-447 290.25,-447 290.25,-459.5 290.25,-459.5 290.25,-465.5 284.25,-471.5 278.25,-471.5"/>
<text text-anchor="middle" x="170.12" y="-456.1" font-family="Times,serif" font-size="12.00">Model Training</text>
<text text-anchor="middle" x="170.12" y="-441.85" font-family="Times,serif" font-size="12.00">Logistic Regression, Random Forest, XGBoost</text>
</g>
<!-- C&#45;&gt;D -->
<g id="edge3" class="edge">
<title>C&#45;&gt;D</title>
<path fill="none" stroke="black" d="M170.12,-507.32C170.12,-500.09 170.12,-491.5 170.12,-483.36"/>
<polygon fill="black" stroke="black" points="173.63,-483.48 170.13,-473.48 166.63,-483.48 173.63,-483.48"/>
</g>
<!-- E -->
<g id="node5" class="node">
<title>E</title>
<path fill="none" stroke="black" d="M222.75,-399C222.75,-399 117.5,-399 117.5,-399 111.5,-399 105.5,-393 105.5,-387 105.5,-387 105.5,-374.5 105.5,-374.5 105.5,-368.5 111.5,-362.5 117.5,-362.5 117.5,-362.5 222.75,-362.5 222.75,-362.5 228.75,-362.5 234.75,-368.5 234.75,-374.5 234.75,-374.5 234.75,-387 234.75,-387 234.75,-393 228.75,-399 222.75,-399"/>
<text text-anchor="middle" x="170.12" y="-383.6" font-family="Times,serif" font-size="12.00">Hyperparameter Tuning</text>
<text text-anchor="middle" x="170.12" y="-369.35" font-family="Times,serif" font-size="12.00">Optuna</text>
</g>
<!-- D&#45;&gt;E -->
<g id="edge4" class="edge">
<title>D&#45;&gt;E</title>
<path fill="none" stroke="black" d="M170.12,-434.82C170.12,-427.59 170.12,-419 170.12,-410.86"/>
<polygon fill="black" stroke="black" points="173.63,-410.98 170.13,-400.98 166.63,-410.98 173.63,-410.98"/>
</g>
<!-- F -->
<g id="node6" class="node">
<title>F</title>
<path fill="none" stroke="black" d="M246.75,-326.5C246.75,-326.5 93.5,-326.5 93.5,-326.5 87.5,-326.5 81.5,-320.5 81.5,-314.5 81.5,-314.5 81.5,-302 81.5,-302 81.5,-296 87.5,-290 93.5,-290 93.5,-290 246.75,-290 246.75,-290 252.75,-290 258.75,-296 258.75,-302 258.75,-302 258.75,-314.5 258.75,-314.5 258.75,-320.5 252.75,-326.5 246.75,-326.5"/>
<text text-anchor="middle" x="170.12" y="-311.1" font-family="Times,serif" font-size="12.00">Model Evaluation</text>
<text text-anchor="middle" x="170.12" y="-296.85" font-family="Times,serif" font-size="12.00">Accuracy, Fairness, Explainability</text>
</g>
<!-- E&#45;&gt;F -->
<g id="edge5" class="edge">
<title>E&#45;&gt;F</title>
<path fill="none" stroke="black" d="M170.12,-362.32C170.12,-355.09 170.12,-346.5 170.12,-338.36"/>
<polygon fill="black" stroke="black" points="173.63,-338.48 170.13,-328.48 166.63,-338.48 173.63,-338.48"/>
</g>
<!-- G -->
<g id="node7" class="node">
<title>G</title>
<path fill="none" stroke="black" d="M151.75,-254C151.75,-254 16.5,-254 16.5,-254 10.5,-254 4.5,-248 4.5,-242 4.5,-242 4.5,-229.5 4.5,-229.5 4.5,-223.5 10.5,-217.5 16.5,-217.5 16.5,-217.5 151.75,-217.5 151.75,-217.5 157.75,-217.5 163.75,-223.5 163.75,-229.5 163.75,-229.5 163.75,-242 163.75,-242 163.75,-248 157.75,-254 151.75,-254"/>
<text text-anchor="middle" x="84.12" y="-238.6" font-family="Times,serif" font-size="12.00">Model Saving</text>
<text text-anchor="middle" x="84.12" y="-224.35" font-family="Times,serif" font-size="12.00">classifier.pkl, preprocessor.pkl</text>
</g>
<!-- F&#45;&gt;G -->
<g id="edge6" class="edge">
<title>F&#45;&gt;G</title>
<path fill="none" stroke="black" d="M148.87,-289.82C138.51,-281.33 125.86,-270.96 114.5,-261.65"/>
<polygon fill="black" stroke="black" points="116.86,-259.06 106.91,-255.43 112.42,-264.47 116.86,-259.06"/>
</g>
<!-- I -->
<g id="node9" class="node">
<title>I</title>
<path fill="none" stroke="black" d="M318.5,-254C318.5,-254 193.75,-254 193.75,-254 187.75,-254 181.75,-248 181.75,-242 181.75,-242 181.75,-229.5 181.75,-229.5 181.75,-223.5 187.75,-217.5 193.75,-217.5 193.75,-217.5 318.5,-217.5 318.5,-217.5 324.5,-217.5 330.5,-223.5 330.5,-229.5 330.5,-229.5 330.5,-242 330.5,-242 330.5,-248 324.5,-254 318.5,-254"/>
<text text-anchor="middle" x="256.12" y="-238.6" font-family="Times,serif" font-size="12.00">Fairness &amp; Drift Monitoring</text>
<text text-anchor="middle" x="256.12" y="-224.35" font-family="Times,serif" font-size="12.00">Fairlearn + Evidently</text>
</g>
<!-- F&#45;&gt;I -->
<g id="edge10" class="edge">
<title>F&#45;&gt;I</title>
<path fill="none" stroke="black" d="M191.38,-289.82C201.74,-281.33 214.39,-270.96 225.75,-261.65"/>
<polygon fill="black" stroke="black" points="227.83,-264.47 233.34,-255.43 223.39,-259.06 227.83,-264.47"/>
</g>
<!-- H -->
<g id="node8" class="node">
<title>H</title>
<path fill="none" stroke="black" d="M120.62,-181.5C120.62,-181.5 47.62,-181.5 47.62,-181.5 41.62,-181.5 35.62,-175.5 35.62,-169.5 35.62,-169.5 35.62,-157 35.62,-157 35.62,-151 41.62,-145 47.62,-145 47.62,-145 120.62,-145 120.62,-145 126.62,-145 132.62,-151 132.62,-157 132.62,-157 132.62,-169.5 132.62,-169.5 132.62,-175.5 126.62,-181.5 120.62,-181.5"/>
<text text-anchor="middle" x="84.12" y="-166.1" font-family="Times,serif" font-size="12.00">API Deployment</text>
<text text-anchor="middle" x="84.12" y="-151.85" font-family="Times,serif" font-size="12.00">FastAPI app.py</text>
</g>
<!-- G&#45;&gt;H -->
<g id="edge7" class="edge">
<title>G&#45;&gt;H</title>
<path fill="none" stroke="black" d="M84.12,-217.32C84.12,-210.09 84.12,-201.5 84.12,-193.36"/>
<polygon fill="black" stroke="black" points="87.63,-193.48 84.13,-183.48 80.63,-193.48 87.63,-193.48"/>
</g>
<!-- J -->
<g id="node10" class="node">
<title>J</title>
<path fill="none" stroke="black" d="M156.25,-109C156.25,-109 12,-109 12,-109 6,-109 0,-103 0,-97 0,-97 0,-84.5 0,-84.5 0,-78.5 6,-72.5 12,-72.5 12,-72.5 156.25,-72.5 156.25,-72.5 162.25,-72.5 168.25,-78.5 168.25,-84.5 168.25,-84.5 168.25,-97 168.25,-97 168.25,-103 162.25,-109 156.25,-109"/>
<text text-anchor="middle" x="84.12" y="-93.6" font-family="Times,serif" font-size="12.00">Dockerize Application</text>
<text text-anchor="middle" x="84.12" y="-79.35" font-family="Times,serif" font-size="12.00">dockerfile, docker&#45;compose.yml</text>
</g>
<!-- H&#45;&gt;J -->
<g id="edge8" class="edge">
<title>H&#45;&gt;J</title>
<path fill="none" stroke="black" d="M84.12,-144.82C84.12,-137.59 84.12,-129 84.12,-120.86"/>
<polygon fill="black" stroke="black" points="87.63,-120.98 84.13,-110.98 80.63,-120.98 87.63,-120.98"/>
</g>
<!-- K -->
<g id="node11" class="node">
<title>K</title>
<path fill="none" stroke="black" d="M123.25,-36.5C123.25,-36.5 45,-36.5 45,-36.5 39,-36.5 33,-30.5 33,-24.5 33,-24.5 33,-12 33,-12 33,-6 39,0 45,0 45,0 123.25,0 123.25,0 129.25,0 135.25,-6 135.25,-12 135.25,-12 135.25,-24.5 135.25,-24.5 135.25,-30.5 129.25,-36.5 123.25,-36.5"/>
<text text-anchor="middle" x="84.12" y="-21.1" font-family="Times,serif" font-size="12.00">CI/CD Integration</text>
<text text-anchor="middle" x="84.12" y="-6.85" font-family="Times,serif" font-size="12.00">GitHub Actions</text>
</g>
<!-- J&#45;&gt;K -->
<g id="edge9" class="edge">
<title>J&#45;&gt;K</title>
<path fill="none" stroke="black" d="M84.12,-72.32C84.12,-65.09 84.12,-56.5 84.12,-48.36"/>
<polygon fill="black" stroke="black" points="87.63,-48.48 84.13,-38.48 80.63,-48.48 87.63,-48.48"/>
</g>
</g>
</svg>
